<svg width="182" height="230" viewBox="0 0 182 230" fill="none" xmlns="http://www.w3.org/2000/svg">
<path d="M172.459 91.8665C162.934 52.2994 135.121 64.7557 118.268 60.3594L70.6106 61.8248C4.75548 61.8248 5.81545 128.56 20.0527 148.286C22.7715 163.666 161.468 155.613 161.468 155.613C164.496 157.063 181.617 129.906 172.459 91.8665Z" fill="#FFDEDE" stroke="black" stroke-opacity="0.2"/>
<ellipse cx="117.878" cy="109.113" rx="1.83181" ry="6.59451" transform="rotate(-85 117.878 109.113)" fill="#414141"/>
<ellipse cx="60.0074" cy="108.68" rx="1.83181" ry="6.59451" transform="rotate(-95 60.0074 108.68)" fill="#414141"/>
<ellipse cx="83.1412" cy="116.778" rx="3.66362" ry="7.9356" transform="rotate(-90 83.1412 116.778)" fill="#414141"/>
<ellipse cx="124.432" cy="119.366" rx="11.1245" ry="1.85408" fill="#FA9E9E"/>
<ellipse cx="124.432" cy="119.366" rx="11.1245" ry="1.85408" fill="#FA9E9E"/>
<ellipse cx="54.0908" cy="119.366" rx="11.1245" ry="1.85408" fill="#FA9E9E"/>
<ellipse cx="54.0908" cy="119.366" rx="11.1245" ry="1.85408" fill="#FA9E9E"/>
<g filter="url(#filter0_d_1618_738)">
<path d="M5 141.654C15.8861 246.883 163.211 248.386 177 141.654L164.474 130.614L147.568 143.126L125.517 130.614L101.995 143.126L78.4739 130.614L52.7474 143.126L29.9611 130.614L5 141.654Z" fill="white"/>
<path d="M5 141.654C15.8861 246.883 163.211 248.386 177 141.654L164.474 130.614L147.568 143.126L125.517 130.614L101.995 143.126L78.4739 130.614L52.7474 143.126L29.9611 130.614L5 141.654Z" stroke="#808080"/>
</g>
<path d="M177 92.247C157.334 -29.9624 32.0539 -29.2434 8.01758 92.247L32.7822 82.1823L56.0902 92.247L78.6697 82.1823L101.249 92.247L126.014 82.1823L149.322 94.4032L163.889 82.1823L177 92.247Z" fill="white" stroke="#808080"/>
<ellipse cx="81.9474" cy="198.509" rx="10.5614" ry="7.54386" fill="#949494"/>
<ellipse cx="130.228" cy="35.5614" rx="10.5614" ry="7.54386" fill="#949494"/>
<ellipse cx="38.193" cy="163.807" rx="9.05263" ry="6.03509" fill="#949494"/>
<ellipse cx="125.702" cy="150.227" rx="6.03509" ry="4.52632" fill="#949494"/>
<circle cx="148.333" cy="174.368" r="4.52632" fill="#949494"/>
<ellipse cx="69.8774" cy="32.5439" rx="7.54386" ry="4.52632" fill="#949494"/>
<ellipse cx="107.597" cy="64.2284" rx="6.03509" ry="6.03509" fill="#949494"/>
<path d="M26.1228 48.7771L28.3079 44.1838L34.1349 35.7626L39.9619 28.1069L45.0605 22.748V21.9824C47.2456 28.1069 49.4307 32.7003 42.8754 41.1215C34.6634 51.6709 26.1228 48.7771 26.1228 48.7771Z" fill="#949494"/>
<path d="M165.715 55.1758C168.342 60.6018 172.231 70.6788 173.982 76.1049C173.982 76.1049 170.739 76.8799 168.727 75.3296C166.036 74.0694 163.599 71.1283 162.597 67.5781C161.815 64.8106 161.561 61.8012 162.597 59.0515C163.632 56.3018 165.715 55.1758 165.715 55.1758Z" fill="#949494"/>
<defs>
<filter id="filter0_d_1618_738" x="0.465332" y="129.972" width="181.065" height="99.6689" filterUnits="userSpaceOnUse" color-interpolation-filters="sRGB">
<feFlood flood-opacity="0" result="BackgroundImageFix"/>
<feColorMatrix in="SourceAlpha" type="matrix" values="0 0 0 0 0 0 0 0 0 0 0 0 0 0 0 0 0 0 127 0" result="hardAlpha"/>
<feOffset dy="4"/>
<feGaussianBlur stdDeviation="2"/>
<feComposite in2="hardAlpha" operator="out"/>
<feColorMatrix type="matrix" values="0 0 0 0 0 0 0 0 0 0 0 0 0 0 0 0 0 0 0.25 0"/>
<feBlend mode="normal" in2="BackgroundImageFix" result="effect1_dropShadow_1618_738"/>
<feBlend mode="normal" in="SourceGraphic" in2="effect1_dropShadow_1618_738" result="shape"/>
</filter>
</defs>
</svg>
