<svg width="35" height="35" viewBox="0 0 35 35" fill="none" xmlns="http://www.w3.org/2000/svg">
<g opacity="0.3">
<path d="M14.2188 31.7188V24.0516C14.2188 23.5156 14.7656 22.9688 15.3125 22.9688H19.6875C20.2344 22.9688 20.7813 23.5156 20.7813 24.0625V31.7188C20.7813 32.0088 20.8965 32.287 21.1016 32.4922C21.3067 32.6973 21.5849 32.8125 21.875 32.8125H30.625C30.9151 32.8125 31.1933 32.6973 31.3984 32.4922C31.6035 32.287 31.7188 32.0088 31.7188 31.7188V16.4063C31.719 16.2625 31.6909 16.1202 31.6361 15.9873C31.5813 15.8544 31.5009 15.7336 31.3994 15.6319L28.4375 12.6722V5.46875C28.4375 5.17867 28.3223 4.90047 28.1172 4.69535C27.912 4.49024 27.6338 4.375 27.3438 4.375H25.1563C24.8662 4.375 24.588 4.49024 24.3829 4.69535C24.1777 4.90047 24.0625 5.17867 24.0625 5.46875V8.29719L18.2744 2.50688C18.1728 2.40502 18.0521 2.32421 17.9192 2.26907C17.7863 2.21393 17.6439 2.18555 17.5 2.18555C17.3561 2.18555 17.2137 2.21393 17.0808 2.26907C16.9479 2.32421 16.8272 2.40502 16.7256 2.50688L3.60063 15.6319C3.49912 15.7336 3.41867 15.8544 3.36387 15.9873C3.30907 16.1202 3.281 16.2625 3.28125 16.4063V31.7188C3.28125 32.0088 3.39649 32.287 3.6016 32.4922C3.80672 32.6973 4.08492 32.8125 4.375 32.8125H13.125C13.4151 32.8125 13.6933 32.6973 13.8984 32.4922C14.1035 32.287 14.2188 32.0088 14.2188 31.7188Z" fill="black"/>
</g>
</svg>
