<svg width="27" height="27" viewBox="0 0 27 27" fill="none" xmlns="http://www.w3.org/2000/svg">
<g clip-path="url(#clip0_280_440)">
<path d="M26.6845 25.095L19.9748 18.3854C21.8033 16.1492 22.7023 13.2957 22.4859 10.4152C22.2694 7.53473 20.9542 4.84762 18.8121 2.9097C16.67 0.971785 13.865 -0.0686802 10.9773 0.00352127C8.08964 0.0757227 5.34016 1.25507 3.29761 3.29761C1.25507 5.34016 0.0757227 8.08964 0.00352127 10.9773C-0.0686802 13.865 0.971785 16.67 2.9097 18.8121C4.84762 20.9542 7.53473 22.2694 10.4152 22.4859C13.2957 22.7023 16.1492 21.8033 18.3854 19.9748L25.095 26.6845C25.307 26.8892 25.591 27.0025 25.8857 27C26.1804 26.9974 26.4624 26.8792 26.6708 26.6708C26.8792 26.4624 26.9974 26.1804 27 25.8857C27.0025 25.591 26.8892 25.307 26.6845 25.095ZM11.2767 20.2694C9.49817 20.2694 7.75954 19.7419 6.28072 18.7538C4.80189 17.7657 3.64928 16.3613 2.96865 14.7181C2.28802 13.0749 2.10994 11.2668 2.45692 9.52237C2.8039 7.77798 3.66037 6.17565 4.91801 4.91801C6.17565 3.66037 7.77798 2.8039 9.52237 2.45692C11.2668 2.10994 13.0749 2.28802 14.7181 2.96865C16.3613 3.64928 17.7657 4.80189 18.7538 6.28072C19.7419 7.75954 20.2694 9.49817 20.2694 11.2767C20.2667 13.6609 19.3184 15.9467 17.6325 17.6325C15.9467 19.3184 13.6609 20.2667 11.2767 20.2694Z" fill="black"/>
</g>
<defs>
<clipPath id="clip0_280_440">
<rect width="27" height="27" fill="white"/>
</clipPath>
</defs>
</svg>
