<svg width="30" height="30" viewBox="0 0 30 30" fill="none" xmlns="http://www.w3.org/2000/svg">
<path d="M6.22498 25.1749H23.75C24.725 25.1749 25.5 24.35 25.5 23.35V7.77495C25.5 6.74995 24.7 5.94995 23.75 5.94995H6.22498C5.24998 5.94995 4.47498 6.77495 4.47498 7.77495V23.325C4.47498 24.35 5.24998 25.1749 6.22498 25.1749Z" fill="#F4F4F4"/>
<path d="M25.525 7.69991V11.4749H4.47498V7.69991C4.47498 6.72491 5.24998 5.94991 6.14998 5.94991H23.825C24.775 5.92491 25.525 6.72491 25.525 7.69991Z" fill="#7A9BFF"/>
<path d="M9.72495 7.79993C9.22495 7.79993 8.82495 8.19993 8.82495 8.69993C8.82495 9.19993 9.22495 9.59993 9.72495 9.59993C10.225 9.59993 10.625 9.19993 10.625 8.69993C10.625 8.19993 10.225 7.79993 9.72495 7.79993Z" fill="#6588E0"/>
<path d="M20.275 7.79993C19.775 7.79993 19.375 8.19993 19.375 8.69993C19.375 9.19993 19.775 9.59993 20.275 9.59993C20.775 9.59993 21.175 9.19993 21.175 8.69993C21.175 8.19993 20.775 7.79993 20.275 7.79993Z" fill="#6588E0"/>
<path d="M9.97495 4.82495H9.47495C9.32495 4.82495 9.19995 4.94995 9.19995 5.09995V8.57495C9.19995 8.72495 9.32495 8.84995 9.47495 8.84995H9.97495C10.125 8.84995 10.25 8.72495 10.25 8.57495V5.12495C10.275 4.94995 10.125 4.82495 9.97495 4.82495Z" fill="#F4F4F4"/>
<path d="M20.525 4.82495H20.025C19.875 4.82495 19.75 4.94995 19.75 5.09995V8.57495C19.75 8.72495 19.875 8.84995 20.025 8.84995H20.525C20.675 8.84995 20.8 8.72495 20.8 8.57495V5.12495C20.8 4.94995 20.675 4.82495 20.525 4.82495Z" fill="#F4F4F4"/>
<path d="M9.92493 14.1H8.24993C7.99993 14.1 7.79993 14.3 7.79993 14.55V16.2C7.79993 16.45 7.99993 16.65 8.24993 16.65H9.89993C10.1499 16.65 10.3499 16.45 10.3499 16.2V14.55C10.3749 14.3 10.1749 14.1 9.92493 14.1Z" fill="#A9C1FC"/>
<path d="M21.7499 14.1H20.0999C19.8499 14.1 19.6499 14.3 19.6499 14.55V16.2C19.6499 16.45 19.8499 16.65 20.0999 16.65H21.7499C21.9999 16.65 22.1999 16.45 22.1999 16.2V14.55C22.1999 14.3 21.9999 14.1 21.7499 14.1Z" fill="#A9C1FC"/>
<path d="M15.825 14.1H14.175C13.925 14.1 13.725 14.3 13.725 14.55V16.2C13.725 16.45 13.925 16.65 14.175 16.65H15.825C16.075 16.65 16.275 16.45 16.275 16.2V14.55C16.275 14.3 16.075 14.1 15.825 14.1Z" fill="#A9C1FC"/>
<path d="M9.92493 19.25H8.24993C7.99993 19.25 7.79993 19.45 7.79993 19.7V21.35C7.79993 21.6 7.99993 21.8 8.24993 21.8H9.89993C10.1499 21.8 10.3499 21.6 10.3499 21.35V19.7C10.3749 19.45 10.1749 19.25 9.92493 19.25Z" fill="#A9C1FC"/>
<path d="M21.7499 19.25H20.0999C19.8499 19.25 19.6499 19.45 19.6499 19.7V21.35C19.6499 21.6 19.8499 21.8 20.0999 21.8H21.7499C21.9999 21.8 22.1999 21.6 22.1999 21.35V19.7C22.1999 19.45 21.9999 19.25 21.7499 19.25Z" fill="#A9C1FC"/>
<path d="M15.825 19.25H14.175C13.925 19.25 13.725 19.45 13.725 19.7V21.35C13.725 21.6 13.925 21.8 14.175 21.8H15.825C16.075 21.8 16.275 21.6 16.275 21.35V19.7C16.275 19.45 16.075 19.25 15.825 19.25Z" fill="#A9C1FC"/>
<path d="M20.9 22.5249C19.8 22.5249 18.9 21.6249 18.9 20.5249C18.9 19.4249 19.8 18.5249 20.9 18.5249C22 18.5249 22.9 19.4249 22.9 20.5249C22.9 21.6249 22.025 22.5249 20.9 22.5249ZM20.9 19.0249C20.075 19.0249 19.4 19.6999 19.4 20.5249C19.4 21.3499 20.075 22.0249 20.9 22.0249C21.725 22.0249 22.4 21.3499 22.4 20.5249C22.4 19.6999 21.75 19.0249 20.9 19.0249Z" fill="#83E598"/>
<path d="M20.7 21.3C20.625 21.3 20.55 21.275 20.525 21.2L19.825 20.425C19.725 20.325 19.75 20.15 19.85 20.075C19.95 19.975 20.125 20 20.2 20.1L20.725 20.7L21.625 19.825C21.725 19.725 21.875 19.725 21.975 19.825C22.075 19.925 22.075 20.075 21.975 20.175L20.875 21.25C20.85 21.275 20.775 21.3 20.7 21.3Z" fill="#FFF2F2"/>
</svg>
