<svg width="50" height="50" viewBox="0 0 50 50" fill="none" xmlns="http://www.w3.org/2000/svg">
<g clip-path="url(#clip0_429_433)">
<path d="M25 50C38.8071 50 50 38.8071 50 25C50 11.1929 38.8071 0 25 0C11.1929 0 0 11.1929 0 25C0 38.8071 11.1929 50 25 50Z" fill="#9EA7DB"/>
<path d="M23.8502 49.9727L10.6377 36.801L35.0064 13.9751L49.7328 28.659C47.9622 40.7314 37.5642 50 25.0001 50C24.6146 50 24.2314 49.9898 23.8502 49.9727Z" fill="#8C95C9"/>
<path d="M10.6377 19.0432H38.4688V36.8011H10.6377V19.0432Z" fill="#E3C04D"/>
<path d="M17.56 24.5701L22.7531 28.7094L24.5416 30.1274L26.2818 28.7441L31.535 24.5764C40.8115 17.2847 40.8115 20.8015 31.535 13.5097L26.2818 9.34214L24.5416 7.95874L22.7531 9.37681L17.56 13.5162C8.31138 20.8048 8.31138 17.2815 17.56 24.5701Z" fill="#FAD55C"/>
<path d="M38.1371 19.7129C39.1136 18.7037 38.0692 18.2244 35.0063 16.0806V21.9502L38.1371 19.7129Z" fill="#E3C04D"/>
<path d="M24.5414 30.1272L35.0063 21.95V13.9751L32.3523 11.3213H14.8027V22.4461L24.5414 30.1272Z" fill="#F8F8F8"/>
<path d="M10.6376 19.9001L10.6437 19.9071L21.3729 28.0581L10.6348 36.3715L10.6379 27.788L10.6376 19.9001Z" fill="#FAD55C"/>
<path d="M38.4689 19.9163L38.4629 19.9231L27.7808 28.0411L38.4672 36.4087L38.464 27.7881L38.4689 19.9163Z" fill="#FAD55C"/>
<path d="M27.4958 28.2866L24.5451 30.6348L21.6229 28.3351L17.6204 31.4401L10.6377 36.8009H24.5536H38.4689L31.4895 31.4467L27.4958 28.2866Z" fill="#F0CA4D"/>
<path d="M24.5579 18.2363C24.5579 16.9007 23.4751 15.8181 22.1396 15.8181C20.8041 15.8181 19.7214 16.9008 19.7214 18.2363C19.7214 21.4579 23.3889 22.8992 24.5579 24.9302C25.7268 22.8992 29.3943 21.4579 29.3943 18.2363C29.3943 16.9007 28.3117 15.8181 26.9761 15.8181C25.6407 15.8181 24.5579 16.9007 24.5579 18.2363Z" fill="#FF8C8A"/>
<path d="M24.2468 24.4712C24.3634 24.6215 24.4682 24.7741 24.5581 24.9302C25.727 22.899 29.3945 21.4577 29.3945 18.2361C29.3945 16.9006 28.3118 15.8179 26.9763 15.8179C26.8708 15.8179 26.7669 15.8247 26.6651 15.8378C27.8536 15.9904 28.7721 17.0061 28.7721 18.2361C28.7721 21.2101 25.6468 22.667 24.2468 24.4712Z" fill="#FA7876"/>
<path d="M24.5607 18.1202C24.4094 16.4172 23.0436 15.8179 22.1396 15.8179C22.0342 15.8179 21.9302 15.8247 21.8284 15.8378C23.0169 15.9904 24.2495 18.0773 24.2495 19.3074C24.2496 18.876 24.3626 18.4709 24.5607 18.1202Z" fill="#FA7876"/>
<path d="M32.3525 11.3213L35.0063 13.9753H32.3525V11.3213Z" fill="#FBFBFB"/>
<path d="M35.0063 16.6292L32.3525 13.9753H35.0063V16.6292Z" fill="#EAEAED"/>
</g>
<defs>
<clipPath id="clip0_429_433">
<rect width="50" height="50" fill="white"/>
</clipPath>
</defs>
</svg>
