<svg width="30" height="30" viewBox="0 0 30 30" fill="none" xmlns="http://www.w3.org/2000/svg">
<g clip-path="url(#clip0_80_796)">
<path d="M14.8405 8.4574V10.3723H18.0319L18.6702 9.41488L18.0319 8.4574H14.8405Z" fill="#95341D"/>
<path d="M27.6064 7.5C26.8978 7.5 26.2795 7.88525 25.9484 8.45742H18.032V10.3723H25.9484C26.2795 10.9445 26.8977 11.3297 27.6064 11.3297C28.6641 11.3297 29.5213 10.4725 29.5213 9.41484C29.5213 8.35723 28.6641 7.5 27.6064 7.5Z" fill="#AB5D4A"/>
<path d="M17.3937 20.266H15.4788L17.0745 24.7341H18.9894V21.8617C18.9894 20.9805 18.275 20.266 17.3937 20.266Z" fill="#AB5D4A"/>
<path d="M15.4787 20.266H5.90421C5.02291 20.266 4.30847 20.9804 4.30847 21.8617V24.7341H17.0744V21.8617C17.0744 20.9805 16.36 20.266 15.4787 20.266Z" fill="#C08577"/>
<path d="M12.9255 14.5212L16.117 13.2447V5.58505L12.9255 4.30847V14.5212Z" fill="#F1866D"/>
<path d="M14.2021 4.30847L7.18079 5.58505V13.2447L14.2021 14.5212V4.30847Z" fill="#F5AC51"/>
<path d="M12.9255 2.39355L14.2021 5.58504H16.117V2.39355H12.9255Z" fill="#792A18"/>
<path d="M14.2021 2.39355H7.18079V5.58504H14.2021V2.39355Z" fill="#95341D"/>
<path d="M12.9255 16.4362H16.117V13.2448H14.2021L12.9255 16.4362Z" fill="#AB5D4A"/>
<path d="M14.2021 13.2448H7.18079V16.4362H14.2021V13.2448Z" fill="#C08577"/>
<path d="M16.1171 15.1595H14.2021V18.351H16.1171C16.9984 18.351 17.7128 17.6366 17.7128 16.7553C17.7128 15.874 16.9984 15.1595 16.1171 15.1595Z" fill="#95341D"/>
<path d="M15.7979 16.7553C15.7979 15.874 15.0834 15.1595 14.2021 15.1595H7.18083C6.29952 15.1595 5.58508 15.874 5.58508 16.7553C5.58508 17.6366 6.29952 18.351 7.18083 18.351H14.2021C15.0834 18.351 15.7979 17.6366 15.7979 16.7553Z" fill="#AB5D4A"/>
<path d="M16.1171 0.47876H14.2021V3.67024H16.1171C16.9984 3.67024 17.7128 2.95581 17.7128 2.0745C17.7128 1.19319 16.9984 0.47876 16.1171 0.47876Z" fill="#AB5D4A"/>
<path d="M15.7979 2.0745C15.7979 1.19319 15.0834 0.47876 14.2021 0.47876H7.18083C6.29952 0.47876 5.58508 1.19319 5.58508 2.0745C5.58508 2.95581 6.29952 3.67024 7.18083 3.67024H14.2021C15.0834 3.67024 15.7979 2.95581 15.7979 2.0745Z" fill="#C08577"/>
<path d="M18.9894 22.8192H17.0745L20.2659 29.5213H22.1809V26.0107C22.1809 24.2481 20.752 22.8192 18.9894 22.8192Z" fill="#95341D"/>
<path d="M17.0745 22.8192H4.30855C2.54593 22.8192 1.11707 24.2481 1.11707 26.0107V29.5213H20.266V26.0107C20.266 24.2481 18.8371 22.8192 17.0745 22.8192Z" fill="#AB5D4A"/>
<path d="M17.8723 25.6914C18.1366 25.6914 18.351 25.4771 18.351 25.2127C18.351 24.9483 18.1366 24.734 17.8723 24.734C17.6079 24.734 17.3936 24.9483 17.3936 25.2127C17.3936 25.4771 17.6079 25.6914 17.8723 25.6914Z" fill="black"/>
<path d="M19.7872 27.6063C20.0516 27.6063 20.2659 27.392 20.2659 27.1276C20.2659 26.8633 20.0516 26.6489 19.7872 26.6489C19.5228 26.6489 19.3085 26.8633 19.3085 27.1276C19.3085 27.392 19.5228 27.6063 19.7872 27.6063Z" fill="black"/>
<path d="M22.8192 29.0425H22.6596V26.0106C22.6596 24.1491 21.2663 22.6081 19.4681 22.3726V21.8617C19.4681 20.7178 18.5375 19.7872 17.3937 19.7872H5.90426C4.76045 19.7872 3.8298 20.7178 3.8298 21.8617V22.3726C2.03162 22.6081 0.63832 24.1491 0.63832 26.0106V29.0425H0.478711C0.214336 29.0425 0 29.2568 0 29.5212C0 29.7857 0.214336 29.9999 0.478711 29.9999H22.8192C23.0835 29.9999 23.2979 29.7857 23.2979 29.5212C23.2979 29.2568 23.0835 29.0425 22.8192 29.0425ZM1.59574 26.0106C1.59574 24.5148 2.81268 23.2978 4.30852 23.2978H6.22342C6.48779 23.2978 6.70213 23.0835 6.70213 22.8191C6.70213 22.5547 6.48779 22.3404 6.22342 22.3404H4.78723V21.8617C4.78723 21.2458 5.28838 20.7447 5.90426 20.7447H17.3936C18.0095 20.7447 18.5106 21.2458 18.5106 21.8617V22.3404H8.13832C7.87395 22.3404 7.65961 22.5547 7.65961 22.8191C7.65961 23.0835 7.87395 23.2978 8.13832 23.2978H18.9894C20.4852 23.2978 21.7021 24.5148 21.7021 26.0106V29.0425H1.59574V26.0106Z" fill="black"/>
<path d="M27.6064 7.02129C26.8512 7.02129 26.141 7.38205 25.6922 7.97871H16.5958V6.06381H16.7554C17.0197 6.06381 17.2341 5.84953 17.2341 5.5851C17.2341 5.32066 17.0197 5.10639 16.7554 5.10639H16.5958V4.0926C17.5095 3.87586 18.1915 3.05355 18.1915 2.07451C18.1915 0.930586 17.2609 0 16.1171 0H7.1809C6.03709 0 5.10645 0.930586 5.10645 2.07445C5.10645 3.05355 5.78848 3.8758 6.70219 4.09254V5.10633H6.54264C6.27826 5.10633 6.06393 5.32061 6.06393 5.58504C6.06393 5.84947 6.27826 6.06375 6.54264 6.06375H6.70219V12.7659H6.54264C6.27826 12.7659 6.06393 12.9802 6.06393 13.2446C6.06393 13.509 6.27826 13.7233 6.54264 13.7233H6.70219V14.7371C5.78848 14.9538 5.10645 15.7761 5.10645 16.7552C5.10645 17.899 6.03709 18.8296 7.1809 18.8296H16.1171C17.2609 18.8296 18.1915 17.899 18.1915 16.7552C18.1915 15.7761 17.5095 14.9538 16.5958 14.7371V13.7233H16.7554C17.0197 13.7233 17.2341 13.509 17.2341 13.2446C17.2341 12.9802 17.0197 12.7659 16.7554 12.7659H16.5958V8.93607H25.9484C26.1192 8.93607 26.2771 8.84496 26.3627 8.69719C26.6192 8.25393 27.0957 7.97865 27.6064 7.97865C28.3984 7.97865 29.0426 8.62295 29.0426 9.41484C29.0426 10.2067 28.3984 10.851 27.6064 10.851C27.0957 10.851 26.6192 10.5758 26.3627 10.1325C26.2772 9.98467 26.1193 9.89361 25.9484 9.89361H18.032C17.7676 9.89361 17.5533 10.1079 17.5533 10.3723C17.5533 10.6368 17.7676 10.851 18.032 10.851H25.6922C26.141 11.4477 26.8512 11.8085 27.6064 11.8085C28.9263 11.8085 30.0001 10.7347 30.0001 9.41484C30.0001 8.09496 28.9263 7.02129 27.6064 7.02129ZM6.06387 2.07445C6.06387 1.45857 6.56502 0.957422 7.1809 0.957422H16.1171C16.733 0.957422 17.2341 1.45857 17.2341 2.07445C17.2341 2.69033 16.733 3.19148 16.1171 3.19148H7.1809C6.56502 3.19148 6.06387 2.69039 6.06387 2.07445ZM7.65961 4.14896H15.6383V5.10639H7.65961V4.14896ZM17.2341 16.7553C17.2341 17.3712 16.733 17.8723 16.1171 17.8723H7.1809C6.56502 17.8723 6.06387 17.3712 6.06387 16.7553C6.06387 16.1394 6.56502 15.6383 7.1809 15.6383H16.1171C16.733 15.6383 17.2341 16.1394 17.2341 16.7553ZM15.6384 14.6808H7.65967V13.7234H15.6384V14.6808ZM7.65961 12.7659V6.06381H15.6383V12.7659H7.65961Z" fill="black"/>
</g>
<defs>
<clipPath id="clip0_80_796">
<rect width="30" height="30" fill="white"/>
</clipPath>
</defs>
</svg>
