<svg width="40" height="40" viewBox="0 0 40 40" fill="none" xmlns="http://www.w3.org/2000/svg">
<path d="M24.999 20.0013C24.9986 25.753 23.5833 31.4163 20.8779 36.492C20.762 36.7095 20.6044 36.9021 20.414 37.0587C20.2236 37.2153 20.0042 37.3328 19.7683 37.4044C19.5324 37.4761 19.2847 37.5006 19.0394 37.4764C18.7941 37.4523 18.5559 37.38 18.3386 37.2637C18.1212 37.1474 17.9289 36.9894 17.7727 36.7987C17.6165 36.608 17.4994 36.3883 17.4282 36.1523C17.357 35.9163 17.333 35.6686 17.3576 35.4233C17.3822 35.178 17.455 34.94 17.5717 34.7229C19.9862 30.1915 21.2491 25.1358 21.249 20.0013C21.249 19.6698 21.1173 19.3519 20.8829 19.1175C20.6485 18.883 20.3306 18.7513 19.999 18.7513C19.6675 18.7513 19.3496 18.883 19.1151 19.1175C18.8807 19.3519 18.749 19.6698 18.749 20.0013C18.749 20.4986 18.5515 20.9755 18.1999 21.3272C17.8482 21.6788 17.3713 21.8763 16.874 21.8763C16.3767 21.8763 15.8998 21.6788 15.5482 21.3272C15.1966 20.9755 14.999 20.4986 14.999 20.0013C14.999 18.6753 15.5258 17.4035 16.4635 16.4658C17.4012 15.5281 18.6729 15.0013 19.999 15.0013C21.3251 15.0013 22.5969 15.5281 23.5346 16.4658C24.4722 17.4035 24.999 18.6753 24.999 20.0013ZM19.999 8.75134C19.5017 8.75134 19.0248 8.94889 18.6732 9.30052C18.3216 9.65215 18.124 10.1291 18.124 10.6263C18.124 11.1236 18.3216 11.6005 18.6732 11.9522C19.0248 12.3038 19.5017 12.5013 19.999 12.5013C21.9875 12.5036 23.8938 13.2945 25.2999 14.7005C26.7059 16.1065 27.4968 18.0129 27.499 20.0013C27.499 21.1929 27.4426 22.3953 27.331 23.5751C27.2843 24.0702 27.4362 24.5636 27.7532 24.9467C28.0702 25.3298 28.5265 25.5713 29.0216 25.6181C29.0815 25.6237 29.141 25.6265 29.1999 25.6265C29.6663 25.6259 30.1158 25.4515 30.4606 25.1374C30.8053 24.8233 31.0207 24.3919 31.0646 23.9276C31.1869 22.6312 31.249 21.3101 31.249 20.0013C31.2457 17.0187 30.0593 14.1592 27.9503 12.0501C25.8412 9.94105 22.9817 8.7547 19.999 8.75134ZM14.9992 14.411C15.3697 14.0793 15.5933 13.614 15.6208 13.1175C15.6483 12.6209 15.4773 12.1338 15.1457 11.7633C14.814 11.3927 14.3487 11.1691 13.8521 11.1417C13.3556 11.1142 12.8685 11.2851 12.498 11.6168C11.3193 12.6727 10.3763 13.9651 9.73036 15.4097C9.08443 16.8544 8.75006 18.4189 8.74903 20.0013C8.74997 23.1929 7.93661 26.3319 6.3859 29.1214C6.26595 29.3364 6.18953 29.5729 6.161 29.8175C6.13247 30.0621 6.1524 30.3099 6.21963 30.5467C6.28686 30.7836 6.40009 31.0049 6.55285 31.198C6.70561 31.3911 6.89491 31.5522 7.10993 31.6722C7.32496 31.7921 7.56151 31.8686 7.80608 31.8971C8.05064 31.9256 8.29843 31.9057 8.53529 31.8385C8.77216 31.7712 8.99346 31.658 9.18657 31.5052C9.37967 31.3525 9.5408 31.1632 9.66075 30.9482C11.5227 27.6001 12.4996 23.8323 12.499 20.0013C12.4998 18.9462 12.7228 17.903 13.1536 16.9398C13.5843 15.9766 14.2132 15.115 14.9992 14.411ZM16.5779 24.4273C16.0941 24.3122 15.5844 24.3939 15.1609 24.6545C14.7374 24.9151 14.4347 25.3332 14.3194 25.8169C13.7173 28.3455 12.7216 30.7638 11.3688 32.9832C11.2405 33.1935 11.155 33.4271 11.117 33.6705C11.079 33.9139 11.0894 34.1624 11.1475 34.4018C11.2056 34.6412 11.3103 34.8668 11.4557 35.0657C11.601 35.2646 11.7842 35.433 11.9946 35.5611C12.205 35.6892 12.4386 35.7746 12.682 35.8123C12.9255 35.8501 13.174 35.8396 13.4133 35.7813C13.6527 35.723 13.8782 35.6181 14.077 35.4726C14.2758 35.3271 14.444 35.1438 14.5719 34.9333C16.1287 32.3789 17.2746 29.5958 17.9675 26.6858C18.0827 26.202 18.001 25.6923 17.7404 25.2688C17.4798 24.8452 17.0616 24.5425 16.5779 24.4273ZM28.5678 28.1875C28.3296 28.125 28.0814 28.11 27.8374 28.1435C27.5934 28.1769 27.3584 28.2581 27.1458 28.3825C26.9333 28.5069 26.7473 28.6719 26.5986 28.8682C26.4498 29.0645 26.3413 29.2882 26.2791 29.5265C25.934 30.8433 25.5172 32.1403 25.0305 33.4117C24.9423 33.6416 24.9002 33.8867 24.9068 34.1329C24.9133 34.3791 24.9683 34.6216 25.0686 34.8466C25.1689 35.0715 25.3125 35.2745 25.4913 35.444C25.67 35.6134 25.8804 35.7459 26.1104 35.8341C26.3404 35.9222 26.5855 35.9641 26.8317 35.9575C27.0779 35.9508 27.3204 35.8958 27.5453 35.7954C27.7702 35.695 27.9731 35.5513 28.1425 35.3725C28.3119 35.1937 28.4443 34.9833 28.5324 34.7532C29.0681 33.3537 29.5269 31.9259 29.9067 30.4762C29.9691 30.238 29.9839 29.9899 29.9504 29.7459C29.9169 29.502 29.8356 29.2671 29.7113 29.0545C29.5869 28.842 29.4219 28.6561 29.2257 28.5073C29.0295 28.3585 28.806 28.2499 28.5678 28.1875ZM20.0009 2.50134C15.3765 2.50656 10.9417 4.33985 7.66354 7.60149C4.38535 10.8631 2.52963 15.2886 2.50101 19.9128C2.49979 19.9421 2.49903 19.9717 2.49903 20.0013C2.50125 21.4853 2.23833 22.9577 1.72266 24.3492C1.5497 24.8154 1.56903 25.3313 1.77641 25.7833C1.98379 26.2353 2.36223 26.5863 2.82847 26.7593C3.29471 26.9323 3.81057 26.9129 4.26255 26.7056C4.71454 26.4982 5.06563 26.1197 5.2386 25.6535C5.899 23.8726 6.24092 21.9895 6.24873 20.0901C6.2501 20.0609 6.25087 20.0311 6.25087 20.0013C6.25107 16.3615 7.69444 12.8703 10.2646 10.293C12.8347 7.71563 16.3219 6.26251 19.9617 6.25212C23.6015 6.24174 27.0969 7.67495 29.6817 10.2376C32.2665 12.8002 33.7297 16.2832 33.7507 19.9229C33.7496 19.9488 33.749 19.9751 33.749 20.0013C33.7502 23.2273 33.3967 26.4436 32.6948 29.5923C32.6411 29.8326 32.6352 30.0811 32.6775 30.3237C32.7198 30.5662 32.8095 30.7981 32.9414 31.006C33.0733 31.2139 33.2449 31.3938 33.4463 31.5354C33.6477 31.677 33.8751 31.7776 34.1154 31.8313C34.3557 31.8851 34.6042 31.891 34.8468 31.8486C35.0894 31.8063 35.3212 31.7167 35.5292 31.5848C35.7371 31.4528 35.917 31.2813 36.0586 31.0798C36.2002 30.8784 36.3007 30.651 36.3545 30.4107C37.1101 27.0212 37.4939 23.5594 37.4989 20.0866C37.5003 20.0584 37.5009 20.0299 37.5009 20.0013C37.4956 15.3617 35.6502 10.9135 32.3694 7.63278C29.0887 4.35203 24.6405 2.5066 20.0009 2.50134Z" fill="black"/>
</svg>
