<svg width="53" height="53" viewBox="0 0 53 53" fill="none" xmlns="http://www.w3.org/2000/svg">
<g clip-path="url(#clip0_440_941)">
<line x1="52.5" y1="18" x2="52.5" stroke="black"/>
<line x1="35" y1="0.5" x2="53" y2="0.5" stroke="black"/>
<line x1="18" y1="0.5" y2="0.5" stroke="black"/>
<line x1="0.5" y1="18" x2="0.5" y2="-5.96244e-09" stroke="black"/>
<line x1="0.5" y1="35" x2="0.5" y2="53" stroke="black"/>
<line x1="18" y1="52.5" x2="-5.96244e-09" y2="52.5" stroke="black"/>
<line x1="35" y1="52.5" x2="53" y2="52.5" stroke="black"/>
<line x1="52.5" y1="35" x2="52.5" y2="53" stroke="black"/>
<path d="M8.35 23.4H14.18V24.46H8.35V23.4ZM7.4 29.76H15.77V30.83H7.4V29.76ZM13.65 23.4H14.96V24.21C14.96 25.33 14.97 26.64 14.54 28.65L13.23 28.51C13.65 26.63 13.65 25.28 13.65 24.21V23.4ZM13.89 25.63V26.63L8.24 26.94L8.06 25.81L13.89 25.63ZM10.37 27.54H11.7V30.15H10.37V27.54ZM17.5792 26.9H24.0892V27.96H17.5792V26.9ZM16.6092 29.69H24.9892V30.78H16.6092V29.69ZM17.5792 23.39H24.0192V24.47H18.8992V27.34H17.5792V23.39ZM28.1229 29.74H36.5029V30.82H28.1229V29.74ZM31.6329 27.76H32.9629V30H31.6329V27.76ZM29.0029 23.22H30.3229V24.64H34.2729V23.22H35.5929V28.04H29.0029V23.22ZM30.3229 25.68V26.98H34.2729V25.68H30.3229ZM43.6921 22.63H45.0321V31.89H43.6921V22.63ZM40.9621 23.59H42.2821C42.2821 26.42 41.3221 28.74 38.0321 30.33L37.3421 29.27C40.0021 27.99 40.9621 26.31 40.9621 23.83V23.59ZM37.8321 23.59H41.5921V24.64H37.8321V23.59Z" fill="white"/>
</g>
<defs>
<clipPath id="clip0_440_941">
<rect width="53" height="53" fill="white"/>
</clipPath>
</defs>
</svg>
