<svg width="50" height="50" viewBox="0 0 50 50" fill="none" xmlns="http://www.w3.org/2000/svg">
<g clip-path="url(#clip0_86_943)">
<path d="M25 50C38.8071 50 50 38.8071 50 25C50 11.1929 38.8071 0 25 0C11.1929 0 0 11.1929 0 25C0 38.8071 11.1929 50 25 50Z" fill="#9EA7DB"/>
<path d="M23.8501 49.9727L10.6376 36.801L35.0064 13.9751L49.7327 28.659C47.9621 40.7314 37.5641 50 25 50C24.6145 50 24.2314 49.9898 23.8501 49.9727Z" fill="#8C95C9"/>
<path d="M10.6376 19.0432H38.4687V36.8011H10.6376V19.0432Z" fill="#E3C04D"/>
<path d="M17.5601 24.57L22.7531 28.7094L24.5416 30.1273L26.2818 28.744L31.5351 24.5764C40.8115 17.2847 40.8115 20.8015 31.5351 13.5097L26.2818 9.34208L24.5416 7.95868L22.7531 9.37675L17.5601 13.5161C8.31144 20.8048 8.31144 17.2814 17.5601 24.57Z" fill="#FAD55C"/>
<path d="M38.1372 19.7129C39.1137 18.7037 38.0693 18.2244 35.0064 16.0806V21.9502L38.1372 19.7129Z" fill="#E3C04D"/>
<path d="M24.5414 30.1274L35.0063 21.9501V13.9752L32.3523 11.3214H14.8027V22.4462L24.5414 30.1274Z" fill="#F8F8F8"/>
<path d="M10.6376 19.9002L10.6437 19.9071L21.3729 28.0581L10.6348 36.3716L10.6379 27.7881L10.6376 19.9002Z" fill="#FAD55C"/>
<path d="M38.4689 19.9162L38.4628 19.923L27.7807 28.041L38.4671 36.4087L38.4639 27.7881L38.4689 19.9162Z" fill="#FAD55C"/>
<path d="M27.4957 28.2867L24.545 30.6349L21.6228 28.3352L17.6203 31.4403L10.6376 36.801H24.5535H38.4689L31.4894 31.4468L27.4957 28.2867Z" fill="#F0CA4D"/>
<path d="M24.5578 18.2362C24.5578 16.9007 23.4751 15.8181 22.1395 15.8181C20.804 15.8181 19.7214 16.9008 19.7214 18.2362C19.7214 21.4578 23.3889 22.8991 24.5578 24.9302C25.7267 22.8991 29.3942 21.4578 29.3942 18.2362C29.3942 16.9007 28.3116 15.8181 26.9761 15.8181C25.6406 15.8181 24.5578 16.9007 24.5578 18.2362Z" fill="#FF8C8A"/>
<path d="M24.2467 24.4712C24.3633 24.6215 24.4681 24.7741 24.5579 24.9302C25.7269 22.899 29.3943 21.4577 29.3943 18.2361C29.3943 16.9006 28.3116 15.8179 26.9762 15.8179C26.8707 15.8179 26.7668 15.8247 26.6649 15.8378C27.8534 15.9904 28.772 17.0061 28.772 18.2361C28.772 21.2101 25.6467 22.667 24.2467 24.4712Z" fill="#FA7876"/>
<path d="M24.5606 18.1203C24.4094 16.4173 23.0435 15.818 22.1395 15.818C22.0342 15.818 21.9302 15.8248 21.8283 15.8379C23.0169 15.9906 24.2494 18.0775 24.2494 19.3075C24.2495 18.8761 24.3626 18.471 24.5606 18.1203Z" fill="#FA7876"/>
<path d="M32.3524 11.3213L35.0063 13.9753H32.3524V11.3213Z" fill="#FBFBFB"/>
<path d="M35.0063 16.6292L32.3524 13.9753H35.0063V16.6292Z" fill="#EAEAED"/>
</g>
<defs>
<clipPath id="clip0_86_943">
<rect width="50" height="50" fill="white"/>
</clipPath>
</defs>
</svg>
