<svg width="51" height="53" viewBox="0 0 51 53" fill="none" xmlns="http://www.w3.org/2000/svg">
<path d="M25.5 33.125C29.0208 33.125 31.875 30.1589 31.875 26.5C31.875 22.8411 29.0208 19.875 25.5 19.875C21.9792 19.875 19.125 22.8411 19.125 26.5C19.125 30.1589 21.9792 33.125 25.5 33.125Z" fill="#FF0000"/>
<path d="M18.1581 18.5378L15.2161 15.3479C12.3919 18.1613 10.625 22.1131 10.625 26.5C10.625 30.8868 12.3919 34.8386 15.2161 37.6521L18.1581 34.4621C16.1394 32.4503 14.875 29.6281 14.875 26.5C14.875 23.3719 16.1394 20.5485 18.1581 18.5378Z" fill="#FF0000"/>
<path d="M35.7839 15.3479L32.8418 18.5378C34.8605 20.5496 36.1249 23.3719 36.1249 26.5C36.1249 29.6281 34.8605 32.4503 32.8418 34.4621L35.7839 37.6521C38.608 34.8386 40.3749 30.8868 40.3749 26.5C40.3749 22.1131 38.608 18.1613 35.7839 15.3479Z" fill="#FF0000"/>
<path d="M12.2836 12.169L9.33087 8.96692C4.89281 13.388 2.125 19.6067 2.125 26.5C2.125 33.3933 4.89281 39.612 9.33087 44.033L12.2836 40.831C8.65087 37.2115 6.375 32.1312 6.375 26.5C6.375 20.8687 8.65087 15.7885 12.2836 12.169Z" fill="#FF0000"/>
<path d="M41.6692 8.96692L38.7166 12.169C42.3492 15.7885 44.6251 20.8687 44.6251 26.5C44.6251 32.1312 42.3492 37.2115 38.7166 40.831L41.6692 44.033C46.1073 39.612 48.8751 33.3933 48.8751 26.5C48.8751 19.6067 46.1073 13.388 41.6692 8.96692Z" fill="#FF0000"/>
</svg>
