<svg width="29" height="35" viewBox="0 0 29 35" fill="none" xmlns="http://www.w3.org/2000/svg">
<path d="M15 12.5C16.3807 12.5 17.5 11.3807 17.5 10C17.5 8.61929 16.3807 7.5 15 7.5C13.6193 7.5 12.5 8.61929 12.5 10C12.5 11.3807 13.6193 12.5 15 12.5Z" fill="#F44336"/>
<path d="M12.1209 6.99538L10.9671 5.79163C9.8596 6.85329 9.16669 8.34454 9.16669 9.99996C9.16669 11.6554 9.8596 13.1466 10.9671 14.2083L12.1209 13.0045C11.3292 12.2454 10.8334 11.1804 10.8334 9.99996C10.8334 8.81954 11.3292 7.75413 12.1209 6.99538Z" fill="#F44336"/>
<path d="M19.0329 5.79163L17.8792 6.99538C18.6708 7.75454 19.1667 8.81954 19.1667 9.99996C19.1667 11.1804 18.6708 12.2454 17.8792 13.0045L19.0329 14.2083C20.1404 13.1466 20.8333 11.6554 20.8333 9.99996C20.8333 8.34454 20.1404 6.85329 19.0329 5.79163Z" fill="#F44336"/>
<path d="M9.81706 4.59212L8.65915 3.38379C6.91873 5.05212 5.83331 7.39879 5.83331 10C5.83331 12.6013 6.91873 14.948 8.65915 16.6163L9.81706 15.408C8.39248 14.0421 7.49998 12.125 7.49998 10C7.49998 7.87504 8.39248 5.95796 9.81706 4.59212Z" fill="#F44336"/>
<path d="M21.3408 3.38379L20.1829 4.59212C21.6075 5.95796 22.5 7.87504 22.5 10C22.5 12.125 21.6075 14.0421 20.1829 15.408L21.3408 16.6163C23.0813 14.948 24.1667 12.6013 24.1667 10C24.1667 7.39879 23.0813 5.05212 21.3408 3.38379Z" fill="#F44336"/>
<path d="M1.32102 31V20.0909H2.64205V29.8281H7.71307V31H1.32102ZM9.58807 31V22.8182H10.8452V31H9.58807ZM10.2273 21.4545C9.98224 21.4545 9.77095 21.3711 9.59339 21.2042C9.41939 21.0373 9.33239 20.8366 9.33239 20.6023C9.33239 20.3679 9.41939 20.1673 9.59339 20.0004C9.77095 19.8335 9.98224 19.75 10.2273 19.75C10.4723 19.75 10.6818 19.8335 10.8558 20.0004C11.0334 20.1673 11.1222 20.3679 11.1222 20.6023C11.1222 20.8366 11.0334 21.0373 10.8558 21.2042C10.6818 21.3711 10.4723 21.4545 10.2273 21.4545ZM19.838 22.8182L16.8124 31H15.534L12.5084 22.8182H13.8721L16.1306 29.3381H16.2158L18.4743 22.8182H19.838ZM24.6347 31.1705C23.8463 31.1705 23.1663 30.9964 22.5945 30.6484C22.0264 30.2969 21.5878 29.8068 21.2789 29.1783C20.9735 28.5462 20.8208 27.8111 20.8208 26.973C20.8208 26.1349 20.9735 25.3963 21.2789 24.7571C21.5878 24.1143 22.0175 23.6136 22.5679 23.255C23.1219 22.8928 23.7682 22.7116 24.5068 22.7116C24.933 22.7116 25.3538 22.7827 25.7693 22.9247C26.1847 23.0668 26.5629 23.2976 26.9039 23.6172C27.2448 23.9332 27.5164 24.3523 27.7188 24.8743C27.9213 25.3963 28.0225 26.0391 28.0225 26.8026V27.3352H21.7156V26.2486H26.7441C26.7441 25.7869 26.6517 25.375 26.4671 25.0128C26.286 24.6506 26.0267 24.3647 25.6894 24.1552C25.3556 23.9457 24.9614 23.8409 24.5068 23.8409C24.0061 23.8409 23.5729 23.9652 23.2071 24.2138C22.8449 24.4588 22.5661 24.7784 22.3708 25.1726C22.1755 25.5668 22.0779 25.9893 22.0779 26.4403V27.1648C22.0779 27.7827 22.1844 28.3065 22.3975 28.7362C22.6141 29.1623 22.9142 29.4872 23.2977 29.7109C23.6812 29.9311 24.1269 30.0412 24.6347 30.0412C24.9649 30.0412 25.2632 29.995 25.5296 29.9027C25.7994 29.8068 26.032 29.6648 26.2274 29.4766C26.4227 29.2848 26.5736 29.0469 26.6801 28.7628L27.8946 29.1037C27.7668 29.5156 27.5519 29.8778 27.2501 30.1903C26.9482 30.4993 26.5754 30.7408 26.1315 30.9148C25.6876 31.0852 25.1887 31.1705 24.6347 31.1705Z" fill="#F44336"/>
</svg>
