<svg width="29" height="17" viewBox="0 0 29 17" fill="none" xmlns="http://www.w3.org/2000/svg">
<path d="M0.981445 1.76172C0.737305 1 0.898437 0.619141 1.46484 0.619141H4.08691C4.5459 0.619141 4.83887 0.868164 4.96582 1.36621L7.23633 9.9502C7.36328 10.4287 7.46582 10.9023 7.54395 11.3711C7.63184 11.8398 7.68555 12.2207 7.70508 12.5137H7.79297C7.8125 12.2207 7.86133 11.8398 7.93945 11.3711C8.02734 10.9023 8.13477 10.4287 8.26172 9.9502L10.5322 1.36621C10.6592 0.868164 10.9521 0.619141 11.4111 0.619141H14.0332C14.5996 0.619141 14.7607 1 14.5166 1.76172L10.2686 15.0186C10.0635 15.6729 9.70703 16 9.19922 16H6.29883C5.79102 16 5.43457 15.6729 5.22949 15.0186L0.981445 1.76172ZM16.4502 14.9746C15.9717 14.6328 15.8398 14.2666 16.0547 13.876L16.8018 12.5137C17.0654 12.0254 17.4756 11.9668 18.0322 12.3379C18.5889 12.709 19.2432 12.9824 19.9951 13.1582C20.7568 13.334 21.4502 13.4219 22.0752 13.4219C22.5146 13.4219 22.9248 13.3779 23.3057 13.29C23.6865 13.2021 24.0088 13.0312 24.2725 12.7773C24.5361 12.5234 24.668 12.1523 24.668 11.6641C24.668 11.3711 24.5898 11.1221 24.4336 10.917C24.2773 10.7119 24.0771 10.5557 23.833 10.4482C23.5889 10.3408 23.3301 10.2529 23.0566 10.1846C22.6953 10.0967 22.1729 9.9502 21.4893 9.74512C20.8154 9.54004 20.166 9.30078 19.541 9.02734C19.0234 8.80273 18.5156 8.49023 18.0176 8.08984C17.5293 7.67969 17.168 7.22559 16.9336 6.72754C16.709 6.22949 16.5967 5.61426 16.5967 4.88184C16.5967 3.89551 16.8799 3.03125 17.4463 2.28906C18.0225 1.54688 18.7646 1.03418 19.6729 0.750977C20.5811 0.467773 21.7139 0.326172 23.0713 0.326172C23.9893 0.326172 24.8828 0.458008 25.752 0.72168C26.6211 0.985352 27.2412 1.23438 27.6123 1.46875C28.1982 1.83984 28.3447 2.23535 28.0518 2.65527L27.1582 3.95898C26.8848 4.34961 26.4453 4.37891 25.8398 4.04688C25.3809 3.79297 24.9268 3.58789 24.4775 3.43164C24.0381 3.27539 23.5449 3.19727 22.998 3.19727C22.627 3.19727 22.2705 3.23633 21.9287 3.31445C21.5869 3.39258 21.2939 3.53906 21.0498 3.75391C20.8154 3.96875 20.6982 4.25195 20.6982 4.60352C20.6982 4.97461 20.8057 5.26758 21.0205 5.48242C21.2451 5.6875 21.499 5.83887 21.7822 5.93652C22.0752 6.03418 22.3535 6.12695 22.6172 6.21484C23.1641 6.39062 23.7158 6.56152 24.2725 6.72754C24.8291 6.88379 25.3955 7.07422 25.9717 7.29883C26.4697 7.49414 26.9531 7.77246 27.4219 8.13379C27.8906 8.49512 28.2324 8.9541 28.4473 9.51074C28.6621 10.0674 28.7695 10.7021 28.7695 11.415C28.7695 12.3623 28.4863 13.2412 27.9199 14.0518C27.3535 14.8623 26.6064 15.4385 25.6787 15.7803C24.751 16.1221 23.6719 16.293 22.4414 16.293C21.0645 16.293 19.8926 16.1953 18.9258 16C17.959 15.8047 17.1338 15.4629 16.4502 14.9746Z" fill="white"/>
</svg>
