<svg width="208" height="249" viewBox="0 0 208 249" fill="none" xmlns="http://www.w3.org/2000/svg">
<g filter="url(#filter0_d_1603_728)">
<path d="M179.175 53.2738C177.082 20.503 140.816 2.82995 124.47 0H106.598C49.7136 0 45.0399 70.2317 39.0827 95.489C15.5967 104.066 1.25516 114.08 4.44079 130.368C6.78921 142.376 20.881 144.091 35.765 137.323C25.3035 183.381 42.2308 199.087 55.1623 208.214C55.1623 221.302 55.2993 239.58 67.8531 239.58C80.4069 239.58 83.7861 221.302 85.0212 208.214C92.1698 215.006 112.41 211.044 121.636 208.214C121.927 223.283 125.619 244.334 141.834 239.58C158.049 234.826 161.739 219.321 161.085 208.214C178.521 207.535 188.328 169.797 179.175 143.054C185.283 145.807 199.961 148.094 203.484 133.799C207.566 117.235 186.457 108.64 173.944 101.242C176.559 102.374 181.267 86.0447 179.175 53.2738Z" fill="#FFDEDE"/>
</g>
<ellipse cx="1.67477" cy="5.86133" rx="1.67477" ry="5.86133" transform="matrix(0.265288 -0.964169 0.967601 0.252486 123.564 66.9648)" fill="black"/>
<ellipse cx="1.6731" cy="5.86692" rx="1.6731" ry="5.86692" transform="matrix(-0.178166 -0.984 0.985575 -0.169238 77.2625 67.7891)" fill="black"/>
<ellipse cx="100.78" cy="77.1928" rx="2.85895" ry="6.35899" transform="rotate(-90 100.78 77.1928)" fill="black"/>
<ellipse cx="137.917" cy="75.7789" rx="8.91433" ry="1.44686" fill="#FA9E9E"/>
<ellipse cx="137.917" cy="75.7789" rx="8.91433" ry="1.44686" fill="#FA9E9E"/>
<ellipse cx="67.96" cy="74.6353" rx="8.91433" ry="1.44686" fill="#FA9E9E"/>
<ellipse cx="67.96" cy="74.6353" rx="8.91433" ry="1.44686" fill="#FA9E9E"/>
<defs>
<filter id="filter0_d_1603_728" x="0" y="0" width="208" height="248.265" filterUnits="userSpaceOnUse" color-interpolation-filters="sRGB">
<feFlood flood-opacity="0" result="BackgroundImageFix"/>
<feColorMatrix in="SourceAlpha" type="matrix" values="0 0 0 0 0 0 0 0 0 0 0 0 0 0 0 0 0 0 127 0" result="hardAlpha"/>
<feOffset dy="4"/>
<feGaussianBlur stdDeviation="2"/>
<feComposite in2="hardAlpha" operator="out"/>
<feColorMatrix type="matrix" values="0 0 0 0 0 0 0 0 0 0 0 0 0 0 0 0 0 0 0.25 0"/>
<feBlend mode="normal" in2="BackgroundImageFix" result="effect1_dropShadow_1603_728"/>
<feBlend mode="normal" in="SourceGraphic" in2="effect1_dropShadow_1603_728" result="shape"/>
</filter>
</defs>
</svg>
