<svg width="220" height="278" viewBox="0 0 220 278" fill="none" xmlns="http://www.w3.org/2000/svg">
<path d="M210.883 51.9965C206.743 62.3786 193.517 66.9542 181.273 62.0719C169.029 57.1897 162.581 44.7689 166.72 34.3868C170.86 24.0047 184.086 19.4291 196.33 24.3113C208.574 29.1936 215.023 41.6144 210.883 51.9965Z" fill="#343434" stroke="#5B5B5B" stroke-width="0.7"/>
<path d="M46.8829 38.4382C51.1931 49.2476 64.9613 54.0084 77.7037 48.9274C90.4461 43.8464 97.1607 30.9181 92.8505 20.1087C88.5403 9.29933 74.7721 4.53847 62.0297 9.61949C49.2873 14.7005 42.5727 27.6288 46.8829 38.4382Z" fill="#343434" stroke="#5B5B5B" stroke-width="0.7"/>
<path d="M199.706 79.0973C197.133 42.9671 152.54 23.4824 132.441 20.3623H110.467C40.522 20.3623 35.7185 98.597 28.3936 126.443C12.2608 138.412 2.21771 140.197 2.21777 157.943C2.21783 175.69 15.2262 169.856 25.7316 167.26C25.7316 212.396 33.3453 241.05 49.2459 251.112C49.2459 265.542 49.6895 274.183 61.2247 274.626C72.308 275.053 82.7765 265.542 84.2951 251.112C93.0851 258.6 112.437 254.232 123.781 251.112C125.556 268.72 141.528 273.691 146.408 272.408C157.5 269.492 161.049 259.098 161.049 244.901C181.901 238.69 194.603 202.264 197.872 169.922C208.52 175.246 215.125 170.406 217.837 161.493C220.943 151.288 213.404 148.339 192.176 133.341C192.176 129.81 202.279 115.228 199.706 79.0973Z" fill="white"/>
<ellipse cx="61.9061" cy="115.465" rx="11.3292" ry="1.8882" fill="#FA9E9E"/>
<ellipse cx="61.9061" cy="115.465" rx="11.3292" ry="1.8882" fill="#FA9E9E"/>
<path d="M163.267 244.015C144.935 251.069 128.418 250.976 122.45 250.048C123.167 260.258 128.179 274.18 141.069 273.252C158.947 271.965 163.267 252.832 163.267 244.015Z" fill="#383838" stroke="#5B5B5B" stroke-width="0.1" stroke-linecap="round"/>
<path d="M85.546 250.164C71.9103 255.237 56.1531 252.419 48.2747 250.164C46.7596 258.995 47.7296 277.334 60.0927 277.785C75.5465 278.348 85.546 261.438 85.546 250.164Z" fill="#383838" stroke="#5B5B5B" stroke-width="0.1" stroke-linecap="round"/>
<path d="M0.0608452 155.362C0.936983 139.896 19.6704 132.254 30.169 123.337L27.2636 167.875C11.3057 177.603 -0.973489 173.622 0.0608452 155.362Z" fill="#383838"/>
<path d="M219.161 158.378C221.335 174.189 205.323 175.027 197.872 170.865L195.732 156.11L192.105 133.099C194.324 137.535 217.394 145.521 219.161 158.378Z" fill="#383838"/>
<ellipse cx="103.025" cy="115.225" rx="4.31021" ry="8.08164" transform="rotate(-90 103.025 115.225)" fill="black"/>
<ellipse cx="134.609" cy="103.168" rx="2.18167" ry="8.48089" transform="rotate(-70 134.609 103.168)" fill="black"/>
<ellipse cx="78.5419" cy="103.532" rx="2.18167" ry="8.48089" transform="rotate(-110 78.5419 103.532)" fill="black"/>
<ellipse cx="149.752" cy="115.465" rx="11.3292" ry="1.8882" fill="#FA9E9E"/>
<ellipse cx="149.752" cy="115.465" rx="11.3292" ry="1.8882" fill="#FA9E9E"/>
<path d="M193.436 129.105C196.098 122.45 199.204 112.246 200.091 96.7178C198.04 103.67 191.082 130.269 176.577 138.866C194.767 132.654 190.952 135.316 193.436 129.105Z" fill="url(#paint0_linear_1618_758)"/>
<path d="M171.253 241.35C175.689 239.132 194.323 204.97 196.098 182.787C194.041 191.211 169.823 236.26 155.281 246.674C169.035 242.681 170.163 241.895 171.253 241.35Z" fill="url(#paint1_linear_1618_758)"/>
<defs>
<linearGradient id="paint0_linear_1618_758" x1="204.528" y1="121.119" x2="191.53" y2="116.14" gradientUnits="userSpaceOnUse">
<stop stop-color="#5C5C5C"/>
<stop offset="0.477321" stop-color="#AAAAAA" stop-opacity="0.522878"/>
<stop offset="1" stop-color="white" stop-opacity="0"/>
</linearGradient>
<linearGradient id="paint1_linear_1618_758" x1="195.077" y1="240.019" x2="170.305" y2="222.092" gradientUnits="userSpaceOnUse">
<stop stop-color="#5C5C5C"/>
<stop offset="0.477321" stop-color="#AAAAAA" stop-opacity="0.522878"/>
<stop offset="1" stop-color="white" stop-opacity="0"/>
</linearGradient>
</defs>
</svg>
