<svg width="320" height="326" viewBox="0 0 320 326" fill="none" xmlns="http://www.w3.org/2000/svg">
<path d="M268.32 48.2859C263.77 59.6951 249.241 64.716 235.799 59.3559C222.356 53.9959 215.268 40.355 219.818 28.9458C224.367 17.5366 238.897 12.5157 252.339 17.8758C265.781 23.2358 272.869 36.8767 268.32 48.2859Z" fill="#343434" stroke="#5B5B5B" stroke-width="0.7"/>
<path d="M88.3746 42.173C93.1109 54.0509 108.235 59.275 122.224 53.6969C136.213 48.1188 143.593 33.9213 138.857 22.0434C134.12 10.1655 118.996 4.94144 105.007 10.5195C91.0181 16.0976 83.6384 30.2951 88.3746 42.173Z" fill="#343434" stroke="#5B5B5B" stroke-width="0.7"/>
<path d="M256.145 87.8954C253.323 48.2664 204.411 26.8948 182.366 23.4727H158.263C81.5453 23.4727 76.9402 106.375 68.9059 136.918C17.6811 158.281 0.11472 157.639 0.115479 177.69C0.116059 193.028 17.681 200.696 62.7332 189.535C62.7332 239.041 71.4534 264.224 88.8937 275.26C88.8937 291.088 86.0719 322.743 103.003 322.743C119.934 322.743 127.498 291.088 129.163 275.26C138.804 283.474 166.102 278.683 178.545 275.26C178.937 293.484 185.188 328.493 207.057 322.743C228.926 316.994 235.233 276.041 234.352 262.609C251.013 241.048 255.913 233.207 259.499 197.733C284.511 209.634 325.692 196.58 316.286 177.69C306.88 158.799 271.169 163.842 247.885 147.391C247.885 143.519 258.966 127.524 256.145 87.8954Z" fill="white"/>
<path d="M234.355 261.921C209.265 276.818 186.658 276.622 178.491 274.662C179.471 296.223 186.331 325.625 203.972 323.665C228.442 320.946 234.355 280.542 234.355 261.921Z" fill="#383838" stroke="#5B5B5B" stroke-width="0.1" stroke-linecap="round"/>
<path d="M132.478 272.539C114.974 282.286 94.7478 276.871 84.6348 272.539C82.69 289.506 83.9352 324.738 99.8048 325.605C119.642 326.688 132.478 294.199 132.478 272.539Z" fill="#383838" stroke="#5B5B5B" stroke-width="0.1" stroke-linecap="round"/>
<path d="M0.142001 174.026C2.18674 155.327 45.9068 146.087 70.4085 135.307L63.628 189.154C26.3854 200.915 -2.27194 196.102 0.142001 174.026Z" fill="#383838"/>
<path d="M254.354 178.524C231.072 213.92 74.5785 225.242 62.9377 189.846L66.181 160.731L69.8413 130.476C85.9372 172.388 233.927 173.463 250.023 142.902L254.354 178.524Z" fill="#383838"/>
<path d="M319.038 181.212C320.069 203.398 280.587 204.362 259.882 198.575L253.936 178.058L250.023 143.593C262.84 163.849 318.052 159.991 319.038 181.212Z" fill="#383838"/>
<ellipse cx="154.116" cy="121.769" rx="4.7276" ry="8.86424" transform="rotate(-90 154.116 121.769)" fill="#383838"/>
<ellipse cx="24.0373" cy="20.6034" rx="24.0373" ry="20.6034" transform="matrix(-0.895525 -0.445011 -0.445011 0.895525 226.177 98.9082)" fill="#3F3F3F"/>
<ellipse cx="185.33" cy="110.073" rx="5.03867" ry="9.30216" fill="white"/>
<ellipse cx="117.756" cy="108.107" rx="24.0373" ry="20.6034" transform="rotate(-26.424 117.756 108.107)" fill="#3F3F3F"/>
<ellipse cx="130.859" cy="110.073" rx="5.03867" ry="9.30216" fill="white"/>
<path d="M187.891 110.456C187.891 113.507 186.037 115.979 183.749 115.979C181.461 115.979 180.297 113.507 180.297 110.456C180.297 107.19 181.461 104.934 183.749 104.934C186.037 104.934 187.891 107.406 187.891 110.456Z" fill="#1C1C1C"/>
<path d="M136.115 110.456C136.115 113.507 134.95 115.979 132.663 115.979C130.375 115.979 128.521 113.507 128.521 110.456C128.521 107.406 130.375 104.934 132.663 104.934C134.95 104.934 136.115 107.406 136.115 110.456Z" fill="#1C1C1C"/>
<circle cx="130.592" cy="107.004" r="0.690351" fill="white"/>
<ellipse cx="149.922" cy="120.089" rx="1.2641" ry="0.758458" fill="white"/>
<circle cx="181.678" cy="107.004" r="0.690351" fill="white"/>
<path d="M172.703 128.404C158.62 138.185 147.505 135.876 143.708 133.498C143.708 136.555 153.028 146.743 161.312 144.706C167.94 143.075 171.668 133.159 172.703 128.404Z" fill="#383838"/>
<ellipse cx="205.84" cy="131.858" rx="12.4263" ry="2.07105" fill="#FA9E9E"/>
<ellipse cx="205.84" cy="131.858" rx="12.4263" ry="2.07105" fill="#FA9E9E"/>
<ellipse cx="105.049" cy="131.858" rx="12.4263" ry="2.07105" fill="#FA9E9E"/>
<ellipse cx="105.049" cy="131.858" rx="12.4263" ry="2.07105" fill="#FA9E9E"/>
<path d="M250.023 144.099C251.68 140.785 256.696 114.874 257.617 109.581C255.284 117.175 234.76 150.588 218.267 159.977C233.454 157.215 247.114 149.916 250.023 144.099Z" fill="url(#paint0_linear_1603_698)"/>
<path d="M250.023 143.593C251.68 140.279 256.696 114.368 257.617 109.075C255.284 116.669 234.76 150.082 218.267 159.471C233.454 156.709 247.114 149.41 250.023 143.593Z" fill="url(#paint1_linear_1603_698)"/>
<path d="M250.023 143.593C251.68 140.279 256.696 114.368 257.617 109.075C255.284 116.669 234.76 150.082 218.267 159.471C233.454 156.709 247.114 149.41 250.023 143.593Z" fill="url(#paint2_linear_1603_698)"/>
<defs>
<linearGradient id="paint0_linear_1603_698" x1="258.307" y1="144.789" x2="241.739" y2="138.576" gradientUnits="userSpaceOnUse">
<stop stop-color="#5C5C5C"/>
<stop offset="0.477321" stop-color="#AAAAAA" stop-opacity="0.522878"/>
<stop offset="1" stop-color="white" stop-opacity="0"/>
</linearGradient>
<linearGradient id="paint1_linear_1603_698" x1="258.307" y1="144.283" x2="241.739" y2="138.07" gradientUnits="userSpaceOnUse">
<stop stop-color="#5C5C5C"/>
<stop offset="0.477321" stop-color="#AAAAAA" stop-opacity="0.522878"/>
<stop offset="1" stop-color="white" stop-opacity="0"/>
</linearGradient>
<linearGradient id="paint2_linear_1603_698" x1="258.307" y1="144.283" x2="241.739" y2="138.07" gradientUnits="userSpaceOnUse">
<stop stop-color="#5C5C5C"/>
<stop offset="0.477321" stop-color="#AAAAAA" stop-opacity="0.522878"/>
<stop offset="1" stop-color="white" stop-opacity="0"/>
</linearGradient>
</defs>
</svg>
