<svg width="134" height="39" viewBox="0 0 134 39" fill="none" xmlns="http://www.w3.org/2000/svg">
<rect y="8" width="120" height="31" rx="15.5" fill="#68AFFD"/>
<path d="M16.72 16.51H18.34V18.535C18.34 21.97 17.14 25.195 14.515 26.485L13.315 24.88C15.655 23.785 16.72 21.115 16.72 18.535V16.51ZM17.125 16.51H18.715V18.535C18.715 21.025 19.705 23.56 21.925 24.64L20.725 26.23C18.22 24.955 17.125 21.865 17.125 18.535V16.51ZM22.48 15.445H24.49V29.335H22.48V15.445ZM24.04 20.785H26.5V22.45H24.04V20.785ZM30.7738 16.99H32.4238V18.16C32.4238 20.785 31.1488 23.155 28.4788 24.025L27.4588 22.465C29.7688 21.715 30.7738 19.915 30.7738 18.16V16.99ZM31.1788 16.99H32.8138V18.16C32.8138 19.81 33.8038 21.505 36.0688 22.225L35.0488 23.77C32.4388 22.945 31.1788 20.68 31.1788 18.16V16.99ZM27.9838 16.435H35.5438V18.01H27.9838V16.435ZM36.9388 15.46H38.9488V25.48H36.9388V15.46ZM29.6938 27.505H39.2938V29.095H29.6938V27.505ZM29.6938 24.58H31.6888V28.3H29.6938V24.58ZM47.4827 15.64C50.6477 15.64 52.5077 16.48 52.5077 18.01C52.5077 19.54 50.6477 20.38 47.4827 20.38C44.3027 20.38 42.4577 19.54 42.4577 18.01C42.4577 16.48 44.3027 15.64 47.4827 15.64ZM47.4827 17.095C45.4727 17.095 44.5277 17.395 44.5277 18.01C44.5277 18.655 45.4727 18.925 47.4827 18.925C49.4927 18.925 50.4377 18.655 50.4377 18.01C50.4377 17.395 49.4927 17.095 47.4827 17.095ZM41.1977 21.025H53.7527V22.6H41.1977V21.025ZM42.6377 23.38H52.2377V26.95H44.6177V28.18H42.6527V25.57H50.2727V24.865H42.6377V23.38ZM42.6527 27.745H52.5977V29.245H42.6527V27.745ZM58.4832 26.11H71.0532V27.73H58.4832V26.11ZM63.7482 23.14H65.7432V26.5H63.7482V23.14ZM59.8032 16.33H61.7832V18.46H67.7082V16.33H69.6882V23.56H59.8032V16.33ZM61.7832 20.02V21.97H67.7082V20.02H61.7832ZM78.477 18.28H82.257V19.885H78.477V18.28ZM78.477 22.585H82.257V24.19H78.477V22.585ZM76.077 16.405C78.147 16.405 79.662 18.325 79.662 21.355C79.662 24.415 78.147 26.335 76.077 26.335C73.992 26.335 72.492 24.415 72.492 21.355C72.492 18.325 73.992 16.405 76.077 16.405ZM76.077 18.22C75.072 18.22 74.382 19.315 74.382 21.355C74.382 23.425 75.072 24.535 76.077 24.535C77.097 24.535 77.772 23.425 77.772 21.355C77.772 19.315 77.097 18.22 76.077 18.22ZM81.942 15.43H83.922V29.365H81.942V15.43ZM89.5008 17.05H91.1358V17.83C91.1358 19.75 89.8008 21.325 87.0258 21.79L86.2608 20.29C88.5108 19.945 89.5008 18.895 89.5008 17.83V17.05ZM89.9358 17.05H91.5408V17.83C91.5408 18.835 92.5308 19.825 94.6608 20.14L93.8658 21.655C91.2258 21.205 89.9358 19.675 89.9358 17.83V17.05ZM86.8308 16.3H94.1958V17.875H86.8308V16.3ZM89.4258 23.275H91.4208V28.915H89.4258V23.275ZM95.8308 15.445H97.8408V29.335H95.8308V15.445ZM86.2608 24.235L86.0208 22.615C88.5258 22.615 91.9758 22.585 94.9458 22.165L95.0508 23.62C92.0058 24.19 88.7358 24.235 86.2608 24.235ZM93.0558 24.865H96.2358V26.365H93.0558V24.865Z" fill="white"/>
<path d="M117.656 31.3115L104.097 7.82792L131.214 7.82792L117.656 31.3115Z" fill="#68AFFD"/>
</svg>
