<svg width="54" height="54" viewBox="0 0 54 54" fill="none" xmlns="http://www.w3.org/2000/svg">
<circle cx="26.615" cy="26.615" r="26.615" fill="#68AFFD"/>
<g clip-path="url(#clip0_1041_326)">
<path d="M35.75 17H35.115L32.385 13.46C32.0332 13.0073 31.5829 12.6405 31.0683 12.3876C30.5538 12.1346 29.9884 12.0021 29.415 12H24.585C24.0116 12.0021 23.4462 12.1346 22.9317 12.3876C22.4171 12.6405 21.9668 13.0073 21.615 13.46L18.885 17H18.25C16.593 17.002 15.0044 17.6611 13.8328 18.8328C12.6611 20.0044 12.002 21.593 12 23.25V35.75C12.002 37.407 12.6611 38.9956 13.8328 40.1672C15.0044 41.3389 16.593 41.998 18.25 42H35.75C37.407 41.998 38.9956 41.3389 40.1672 40.1672C41.3389 38.9956 41.998 37.407 42 35.75V23.25C41.998 21.593 41.3389 20.0044 40.1672 18.8328C38.9956 17.6611 37.407 17.002 35.75 17ZM23.595 14.9875C23.7121 14.8363 23.8621 14.7138 24.0337 14.6294C24.2052 14.5449 24.3938 14.5006 24.585 14.5H29.415C29.6062 14.5008 29.7947 14.5451 29.9662 14.6296C30.1377 14.7141 30.2878 14.8365 30.405 14.9875L31.9575 17H22.0425L23.595 14.9875ZM39.5 35.75C39.5 36.7446 39.1049 37.6984 38.4017 38.4017C37.6984 39.1049 36.7446 39.5 35.75 39.5H18.25C17.2554 39.5 16.3016 39.1049 15.5983 38.4017C14.8951 37.6984 14.5 36.7446 14.5 35.75V23.25C14.5 22.2554 14.8951 21.3016 15.5983 20.5983C16.3016 19.8951 17.2554 19.5 18.25 19.5H35.75C36.7446 19.5 37.6984 19.8951 38.4017 20.5983C39.1049 21.3016 39.5 22.2554 39.5 23.25V35.75Z" fill="white"/>
<path d="M27 22C25.5166 22 24.0666 22.4399 22.8332 23.264C21.5999 24.0881 20.6386 25.2594 20.0709 26.6299C19.5032 28.0003 19.3547 29.5083 19.6441 30.9632C19.9335 32.418 20.6478 33.7544 21.6967 34.8033C22.7456 35.8522 24.082 36.5665 25.5368 36.8559C26.9917 37.1453 28.4997 36.9968 29.8701 36.4291C31.2406 35.8614 32.4119 34.9001 33.236 33.6668C34.0601 32.4334 34.5 30.9834 34.5 29.5C34.498 27.5115 33.7072 25.605 32.3011 24.1989C30.895 22.7928 28.9885 22.002 27 22ZM27 34.5C26.0111 34.5 25.0444 34.2068 24.2222 33.6573C23.3999 33.1079 22.759 32.327 22.3806 31.4134C22.0022 30.4998 21.9032 29.4945 22.0961 28.5245C22.289 27.5546 22.7652 26.6637 23.4645 25.9645C24.1637 25.2652 25.0546 24.789 26.0246 24.5961C26.9945 24.4031 27.9998 24.5022 28.9134 24.8806C29.8271 25.259 30.6079 25.8999 31.1574 26.7221C31.7068 27.5444 32 28.5111 32 29.5C32 30.8261 31.4732 32.0979 30.5355 33.0355C29.5979 33.9732 28.3261 34.5 27 34.5Z" fill="white"/>
</g>
<defs>
<clipPath id="clip0_1041_326">
<rect width="30" height="30" fill="white" transform="translate(12 12)"/>
</clipPath>
</defs>
</svg>
