<svg width="37" height="35" viewBox="0 0 37 35" fill="none" xmlns="http://www.w3.org/2000/svg">
<path d="M12.5579 1C12.5579 1 4.55311 1.59266 2.31781 5.31161C0.366117 8.55873 0.766721 11.5563 2.31781 15.0127C3.47714 17.5962 3.93468 20.4022 3.93468 20.4022C3.93468 20.4022 1.90654 33.876 7.16837 33.876H28.9959C34.2577 33.876 33.038 20.4022 33.038 20.4022C33.038 20.4022 33.3246 17.7594 34.6549 15.0127C36.3062 11.603 36.5851 8.57154 34.6549 5.31161C32.345 1.41044 23.8759 1 23.8759 1H12.5579Z" fill="#FFE0A3" stroke="#D4A155" stroke-width="2"/>
<path d="M24.0632 18.4379L27.9354 19.4407" stroke="#4A4A4A" stroke-width="1.5" stroke-linecap="round"/>
<path d="M24.0488 18.3823L26.9459 15.6244" stroke="#4A4A4A" stroke-width="1.5" stroke-linecap="round"/>
<path d="M13.4351 18.4277L9.54882 19.3748" stroke="#4A4A4A" stroke-width="1.5" stroke-linecap="round"/>
<path d="M13.4838 18.382L10.6266 15.5826" stroke="#4A4A4A" stroke-width="1.5" stroke-linecap="round"/>
<path d="M21.7683 21.0795C20.5366 21.3633 18.9457 21.4342 18.3041 21.4342L15.6098 21.0796C13.6852 20.3703 14.0701 24.6259 18.3041 24.9805C22.5382 25.3352 23.308 20.7249 21.7683 21.0795Z" fill="#D7798D" stroke="#CA4D6E"/>
</svg>
