<svg width="42" height="38" viewBox="0 0 42 38" fill="none" xmlns="http://www.w3.org/2000/svg">
<path d="M2.87101 9.87334C4.7786 5.75045 5.86872 3.39437 10.3604 2.39624C14.8604 1.39626 11.8604 1.89622 14.3604 1.39624C16.8604 0.896261 17.1839 0.84031 19.8604 1.39627C22.3458 1.91251 20.3604 0.89624 24.8604 2.89624C28.3401 4.44278 28.7671 6.17926 31.3604 8.89624C33.6042 11.2471 36.0923 12.1695 37.8604 14.8962C40.1976 18.5006 40.7295 21.3245 39.3604 25.3962C37.9413 29.6167 36.5846 32.9882 32.3604 34.3962C23.3604 37.3962 20.8604 37.3962 10.8604 34.3962C6.3562 33.045 4.73932 29.7071 2.86042 25.3962C0.441884 19.8473 0.318605 15.3898 2.86042 9.89624L2.87101 9.87334Z" fill="#F08279"/>
<path d="M2.87101 9.87334C4.7786 5.75045 5.86872 3.39437 10.3604 2.39624C14.8604 1.39626 11.8604 1.89622 14.3604 1.39624C16.8604 0.896261 17.1839 0.84031 19.8604 1.39627C22.3458 1.91251 20.3604 0.89624 24.8604 2.89624C28.3401 4.44278 28.7671 6.17926 31.3604 8.89624C33.6042 11.2471 36.0923 12.1695 37.8604 14.8962C40.1976 18.5006 40.7295 21.3245 39.3604 25.3962C37.9413 29.6167 36.5846 32.9882 32.3604 34.3962C23.3604 37.3962 20.8604 37.3962 10.8604 34.3962C6.3562 33.045 4.73932 29.7071 2.86042 25.3962C0.441884 19.8473 0.318605 15.3898 2.86042 9.89624L2.87101 9.87334Z" stroke="white" stroke-width="2"/>
<path d="M2.87101 9.87334C4.7786 5.75045 5.86872 3.39437 10.3604 2.39624C14.8604 1.39626 11.8604 1.89622 14.3604 1.39624C16.8604 0.896261 17.1839 0.84031 19.8604 1.39627C22.3458 1.91251 20.3604 0.89624 24.8604 2.89624C28.3401 4.44278 28.7671 6.17926 31.3604 8.89624C33.6042 11.2471 36.0923 12.1695 37.8604 14.8962C40.1976 18.5006 40.7295 21.3245 39.3604 25.3962C37.9413 29.6167 36.5846 32.9882 32.3604 34.3962C23.3604 37.3962 20.8604 37.3962 10.8604 34.3962C6.3562 33.045 4.73932 29.7071 2.86042 25.3962C0.441884 19.8473 0.318605 15.3898 2.86042 9.89624L2.87101 9.87334Z" stroke="#FF0000" stroke-opacity="0.2" stroke-width="2"/>
<ellipse cx="10.5251" cy="10.7993" rx="2.5" ry="3.42857" transform="rotate(13 10.5251 10.7993)" fill="white"/>
<path d="M25.5143 19.8552L29.3866 20.858" stroke="#4A4A4A" stroke-width="1.5" stroke-linecap="round"/>
<path d="M25.4999 19.7997L28.3971 17.0417" stroke="#4A4A4A" stroke-width="1.5" stroke-linecap="round"/>
<path d="M14.8863 20L11 20.9471" stroke="#4A4A4A" stroke-width="1.5" stroke-linecap="round"/>
<path d="M14.935 19.7993L12.0778 17" stroke="#4A4A4A" stroke-width="1.5" stroke-linecap="round"/>
<path d="M23.2683 22.0795C22.0366 22.3633 20.4457 22.4342 19.8041 22.4342L17.1098 22.0796C15.1852 21.3703 15.5701 25.6259 19.8041 25.9805C24.0382 26.3352 24.808 21.7249 23.2683 22.0795Z" fill="#D7798D" stroke="#CA4D6E"/>
</svg>
