<svg width="54" height="54" viewBox="0 0 54 54" fill="none" xmlns="http://www.w3.org/2000/svg">
<path d="M54 26.6148C54 41.3137 42.0842 53.2295 27.3853 53.2295C12.6863 53.2295 0.770508 41.3137 0.770508 26.6148C0.770508 11.9158 12.6863 0 27.3853 0C42.0842 0 54 11.9158 54 26.6148Z" fill="#157EFB" fill-opacity="0.56"/>
<path d="M32.4354 25.5771C33.6237 25.5771 34.784 25.0712 35.6192 24.1908L40.5133 19.0266C40.9223 18.596 40.904 17.9147 40.4724 17.5057C40.0419 17.0967 39.3605 17.1139 38.9515 17.5466L34.0574 22.7098C33.6205 23.1715 33.0446 23.4245 32.4354 23.4245H29.5519V20.3214C29.5519 19.6498 29.8059 18.9964 30.2505 18.5271L35.1445 13.3618C35.5535 12.9313 35.5352 12.25 35.1036 11.841C34.6731 11.432 33.9918 11.4492 33.5828 11.8819L28.6898 17.0461C27.8588 17.9233 27.4003 19.0868 27.4003 20.3214V21.4332L31.3257 25.576H32.4354V25.5771Z" fill="#8B9CA5"/>
<path d="M21.5957 30.2021L20.0748 28.5962L13.5587 35.4696C12.2951 36.8011 12.1315 38.7159 13.1841 39.8288L13.8698 40.5521C14.3304 41.0386 14.9708 41.3055 15.6758 41.3055C16.5627 41.3055 17.4679 40.8868 18.1589 40.1582L25.6018 32.3052C24.1918 32.1255 22.7527 31.4226 21.5957 30.2021Z" fill="#FBC34E"/>
<path d="M41.6865 36.5136L31.3246 25.577L27.3992 21.4342L18.3505 11.8817C18.1482 11.6675 17.8651 11.5459 17.5702 11.5459C17.2731 11.5459 16.99 11.6675 16.7866 11.8828C16.6284 12.097 13.8353 14.9202 13.7427 15.1613C12.139 17.3387 12.5911 20.7001 14.8341 23.0659L20.0748 28.5961L21.5957 30.202C22.7516 31.4225 24.1918 32.1254 25.6018 32.3051C26.6307 32.4364 27.6436 32.2965 28.5186 31.8358L37.2412 41.0352C37.6351 41.4529 38.1658 41.6832 38.7341 41.6832C38.7352 41.6832 38.7352 41.6832 38.7362 41.6832C39.2981 41.6832 39.847 41.4453 40.2388 41.0309L41.6811 39.509C42.4786 38.6673 42.4808 37.352 41.6865 36.5136Z" fill="#E4EDF2"/>
</svg>
