<svg width="93" height="39" viewBox="0 0 93 39" fill="none" xmlns="http://www.w3.org/2000/svg">
<rect y="8" width="79" height="31" rx="15.5" fill="#68AFFD"/>
<path d="M76.6557 31.3115L63.0975 7.82792L90.214 7.82792L76.6557 31.3115Z" fill="#68AFFD"/>
<path d="M17.88 25.34H19.86V30.35H17.88V25.34ZM12.615 24.755H25.17V26.375H12.615V24.755ZM17.865 18.935H19.62V19.265C19.62 21.59 17.61 23.615 13.935 24.05L13.245 22.49C16.38 22.13 17.865 20.555 17.865 19.265V18.935ZM18.12 18.935H19.875V19.265C19.875 20.525 21.375 22.13 24.495 22.49L23.79 24.05C20.13 23.63 18.12 21.53 18.12 19.265V18.935ZM13.74 18.035H24.03V19.61H13.74V18.035ZM17.88 16.475H19.86V18.575H17.88V16.475ZM29.5188 19.16H31.1388V19.7C31.1388 22.235 29.9088 24.5 27.2688 25.325L26.3088 23.765C28.5588 23.06 29.5188 21.38 29.5188 19.7V19.16ZM29.8788 19.16H31.5138V19.7C31.5138 21.26 32.4888 22.865 34.7388 23.54L33.7788 25.1C31.1538 24.32 29.8788 22.13 29.8788 19.7V19.16ZM26.7888 18.08H34.2438V19.64H26.7888V18.08ZM29.5188 16.55H31.5138V18.665H29.5188V16.55ZM33.8088 20.48H37.0338V22.115H33.8088V20.48ZM36.0288 16.46H38.0238V26.735H36.0288V16.46ZM28.8588 28.505H38.3388V30.095H28.8588V28.505ZM28.8588 25.88H30.8538V29.555H28.8588V25.88ZM40.1827 18.53H46.8277V20.12H40.1827V18.53ZM43.5277 20.735C45.2977 20.735 46.5727 22.1 46.5727 24.05C46.5727 25.985 45.2977 27.35 43.5277 27.35C41.7727 27.35 40.4827 25.985 40.4827 24.05C40.4827 22.1 41.7727 20.735 43.5277 20.735ZM43.5277 22.4C42.7777 22.4 42.2527 23 42.2527 24.05C42.2527 25.1 42.7777 25.685 43.5277 25.685C44.2777 25.685 44.8177 25.1 44.8177 24.05C44.8177 23 44.2777 22.4 43.5277 22.4ZM50.2327 16.445H52.1377V30.335H50.2327V16.445ZM48.5677 22.085H50.8627V23.69H48.5677V22.085ZM47.3227 16.7H49.1827V29.75H47.3227V16.7ZM42.5527 16.82H44.5177V19.535H42.5527V16.82ZM57.4315 18.05H59.0665V18.83C59.0665 20.75 57.7315 22.325 54.9565 22.79L54.1915 21.29C56.4415 20.945 57.4315 19.895 57.4315 18.83V18.05ZM57.8665 18.05H59.4715V18.83C59.4715 19.835 60.4615 20.825 62.5915 21.14L61.7965 22.655C59.1565 22.205 57.8665 20.675 57.8665 18.83V18.05ZM54.7615 17.3H62.1265V18.875H54.7615V17.3ZM57.3565 24.275H59.3515V29.915H57.3565V24.275ZM63.7615 16.445H65.7715V30.335H63.7615V16.445ZM54.1915 25.235L53.9515 23.615C56.4565 23.615 59.9065 23.585 62.8765 23.165L62.9815 24.62C59.9365 25.19 56.6665 25.235 54.1915 25.235ZM60.9865 25.865H64.1665V27.365H60.9865V25.865Z" fill="white"/>
</svg>
